<?xml version="1.0" standalone="no"?>
<!DOCTYPE svg PUBLIC "-//W3C//DTD SVG 1.0//EN" "http://www.w3.org/TR/2001/REC-SVG-20010904/DTD/svg10.dtd">
<svg xmlns="http://www.w3.org/2000/svg" xmlns:xlink="http://www.w3.org/1999/xlink" id="body_1" width="61" height="53">

<g transform="matrix(0.67777777 0 0 0.67948717 0 0)">
	<g transform="matrix(0.37142858 0 0 0.37142858 0.8571433 -0)">
		<g transform="matrix(0.1 0 -0 -0.1 0 210)">
            <path d="M464 1904C 421 1860 408 1815 406 1708C 406 1652 409 1615 414 1620C 419 1625 422 1667 421 1714C 420 1772 424 1810 435 1836C 452 1877 477 1910 492 1910C 508 1910 530 1842 530 1790C 530 1763 534 1740 538 1740C 551 1740 576 1771 599 1817C 611 1841 631 1867 645 1876C 680 1899 740 1904 778 1888L778 1888L810 1875L790 1843C 761 1795 696 1752 642 1745C 616 1742 584 1734 570 1728C 546 1718 546 1717 565 1709C 576 1705 614 1701 649 1701L649 1701L713 1700L694 1679C 660 1641 620 1628 546 1628C 493 1628 470 1624 456 1612C 433 1590 392 1534 408 1544C 414 1547 449 1554 485 1559C 546 1566 550 1565 550 1547C 550 1504 441 1430 377 1430C 368 1430 355 1421 347 1410C 339 1399 331 1393 327 1396C 324 1399 324 1393 327 1381C 330 1369 333 1360 335 1360C 336 1360 363 1369 396 1379C 428 1390 456 1398 457 1396C 465 1388 412 1309 374 1274C 340 1242 323 1233 300 1235C 283 1236 267 1234 265 1229C 262 1225 269 1223 280 1225C 291 1227 298 1225 295 1219C 291 1214 283 1210 276 1210C 262 1210 262 1175 275 1127L275 1127L282 1100L304 1122C 341 1163 373 1187 368 1170C 365 1162 367 1142 371 1127C 379 1098 365 1050 348 1050C 343 1050 342 1054 345 1060C 348 1066 344 1067 335 1064C 324 1059 321 1062 326 1076C 331 1094 331 1094 317 1078C 301 1058 285 1053 296 1072C 300 1079 299 1080 291 1076C 285 1072 272 1074 264 1081C 256 1087 247 1090 243 1087C 233 1077 260 1051 275 1056C 282 1059 291 1056 295 1050C 299 1044 310 1042 321 1045C 332 1049 340 1047 340 1041C 340 1035 335 1030 329 1030C 313 1030 270 994 277 986C 281 982 285 969 286 957C 288 939 287 939 276 963C 269 978 261 988 257 985C 253 982 254 986 260 992C 274 1009 273 1027 258 1012C 241 995 217 997 223 1014C 227 1024 223 1026 208 1022C 192 1018 189 1020 195 1030C 200 1038 199 1041 192 1036C 179 1028 157 1064 168 1075C 172 1080 169 1080 163 1076C 156 1072 150 1073 150 1079C 150 1085 162 1096 176 1103C 193 1112 199 1120 191 1124C 185 1128 180 1126 180 1120C 180 1114 176 1111 171 1114C 166 1117 164 1129 167 1141C 173 1161 173 1161 196 1139C 208 1128 216 1112 213 1104C 210 1096 213 1090 219 1090C 225 1090 230 1096 230 1104C 230 1111 237 1123 245 1130C 253 1137 260 1148 260 1154C 260 1160 255 1158 250 1150C 244 1140 242 1149 243 1179C 245 1216 241 1228 218 1252C 187 1284 172 1329 164 1420L164 1420L159 1485L184 1456C 198 1439 206 1422 204 1418C 201 1413 203 1411 208 1412C 213 1414 229 1402 244 1387C 271 1358 290 1359 290 1389C 290 1398 296 1415 304 1425C 315 1441 315 1450 297 1489C 271 1548 272 1608 300 1665C 321 1709 323 1710 341 1694C 363 1674 384 1605 375 1581C 370 1567 371 1567 384 1580C 397 1593 398 1602 388 1632C 374 1679 337 1725 322 1716C 315 1712 300 1690 288 1667C 261 1615 259 1529 283 1483C 298 1454 298 1448 284 1415L284 1415L269 1378L232 1421C 212 1444 189 1472 182 1482C 155 1519 147 1502 153 1423C 160 1326 174 1279 205 1241C 230 1212 237 1176 222 1153C 213 1139 162 1186 141 1228C 110 1288 98 1204 125 1112C 139 1065 188 999 217 989C 223 987 232 972 235 957L235 957L242 929L201 951C 175 964 151 970 136 966C 114 961 112 957 120 929C 132 888 159 848 169 855C 174 857 177 853 176 844C 176 835 197 813 225 794C 323 729 321 731 268 730C 243 730 215 727 206 724C 186 716 185 690 205 690C 214 690 244 666 273 636C 322 585 371 560 422 560C 431 560 442 555 445 550C 450 542 457 543 468 552C 483 563 483 563 473 549C 464 538 464 530 471 523C 479 515 467 509 427 500C 396 494 364 480 354 469C 336 449 336 448 363 424C 393 398 477 370 524 370C 541 370 571 374 590 380C 617 388 629 386 649 374L649 374L673 358L643 345C 626 338 605 321 596 309C 581 287 581 284 597 272C 624 252 804 260 853 284C 880 298 902 301 931 296C 985 287 1088 253 1118 233C 1140 219 1141 217 1125 200C 1109 182 1109 180 1127 156C 1149 125 1166 123 1175 150C 1183 176 1195 175 1215 148L1215 148L1231 125L1256 154C 1279 180 1280 184 1266 199C 1257 209 1250 219 1250 222C 1250 232 1375 278 1437 291C 1491 302 1501 302 1536 285C 1578 264 1705 253 1765 264C 1790 269 1800 276 1800 290C 1800 310 1756 350 1734 350C 1726 350 1720 354 1720 358C 1720 374 1765 386 1795 379C 1873 361 1970 380 2023 423C 2050 446 2051 447 2033 469C 2022 482 1999 493 1975 496C 1907 506 1904 508 1930 535C 1943 549 1961 560 1970 560C 2016 560 2082 594 2116 636C 2136 660 2163 683 2176 686C 2226 699 2198 722 2125 730L2125 730L2075 736L2109 755C 2165 787 2236 857 2255 899C 2283 961 2265 983 2205 960C 2188 954 2182 946 2186 938C 2192 929 2195 929 2198 938C 2200 945 2206 950 2211 950C 2217 950 2219 946 2215 941C 2212 936 2214 929 2220 925C 2225 922 2230 925 2230 933C 2230 940 2237 947 2245 947C 2264 947 2265 931 2246 924C 2238 921 2234 911 2237 902C 2241 889 2240 888 2232 899C 2227 906 2217 910 2212 906C 2206 902 2196 909 2190 920C 2183 933 2172 939 2164 936C 2154 932 2150 938 2150 955C 2150 971 2160 985 2180 997C 2227 1024 2260 1081 2272 1152C 2279 1188 2280 1225 2276 1236C 2269 1254 2267 1254 2252 1230C 2225 1191 2179 1140 2169 1140C 2154 1140 2159 1216 2174 1229C 2202 1252 2232 1343 2238 1422C 2241 1467 2239 1500 2234 1500C 2229 1500 2200 1473 2171 1439L2171 1439L2117 1378L2103 1411C 2091 1440 2091 1449 2106 1484C 2129 1542 2127 1616 2102 1667C 2075 1719 2064 1726 2040 1705C 2015 1682 1988 1602 1999 1583C 2005 1572 2009 1580 2013 1609C 2018 1651 2043 1700 2059 1700C 2079 1700 2103 1643 2107 1586C 2111 1538 2107 1517 2091 1486C 2072 1449 2071 1444 2086 1422C 2095 1409 2100 1390 2097 1380C 2092 1361 2105 1359 2131 1375C 2139 1381 2166 1410 2190 1440L2190 1440L2233 1495L2226 1422C 2216 1312 2177 1221 2145 1234C 2133 1238 2133 1216 2145 1188C 2153 1167 2145 1140 2131 1140C 2126 1140 2121 1148 2121 1158C 2119 1197 2115 1219 2112 1215C 2093 1197 1941 1328 1955 1350C 1958 1356 1957 1360 1952 1360C 1947 1360 1940 1369 1937 1381C 1933 1397 1935 1400 1948 1394C 1986 1378 2055 1363 2058 1371C 2065 1387 2039 1420 2014 1426C 1997 1430 1991 1437 1995 1448C 1999 1460 1998 1461 1986 1451C 1952 1422 1840 1499 1840 1550C 1840 1570 1857 1570 1953 1550L1953 1550L1991 1542L1957 1583L1922 1625L1849 1626C 1769 1626 1707 1648 1689 1681C 1680 1699 1684 1700 1742 1701C 1777 1701 1814 1705 1825 1710C 1844 1717 1843 1719 1817 1729C 1801 1735 1778 1740 1764 1740C 1706 1740 1625 1794 1594 1852C 1577 1885 1584 1890 1653 1896C 1718 1902 1764 1877 1787 1822C 1802 1784 1837 1740 1852 1740C 1856 1740 1860 1761 1860 1788C 1860 1849 1877 1910 1895 1910C 1913 1910 1946 1867 1961 1823C 1968 1802 1971 1755 1968 1709C 1965 1659 1967 1626 1974 1621C 1991 1607 1982 1786 1964 1836C 1956 1858 1937 1889 1921 1904L1921 1904L1892 1932L1874 1905C 1864 1890 1854 1852 1852 1819C 1850 1786 1843 1760 1838 1760C 1833 1760 1818 1785 1805 1815C 1778 1876 1749 1899 1693 1907C 1645 1913 1570 1894 1570 1875C 1570 1849 1635 1777 1679 1753C 1703 1740 1741 1730 1762 1730C 1786 1730 1799 1726 1795 1720C 1792 1715 1762 1710 1729 1710C 1663 1710 1654 1698 1693 1663C 1732 1627 1763 1616 1839 1614C 1898 1613 1916 1608 1933 1591C 1954 1571 1954 1570 1935 1570C 1865 1570 1667 1615 1554 1656C 1483 1682 1389 1710 1346 1720C 1302 1729 1265 1741 1263 1747C 1261 1753 1275 1767 1293 1779C 1312 1791 1333 1807 1340 1815C 1351 1828 1344 1830 1289 1828L1289 1828L1225 1827L1279 1821L1334 1815L1292 1787C 1269 1772 1250 1758 1250 1756C 1250 1754 1257 1736 1265 1717C 1288 1661 1283 1656 1240 1690L1240 1690L1200 1722L1167 1698C 1110 1655 1108 1655 1126 1700C 1135 1722 1140 1744 1136 1747C 1133 1751 1130 1748 1130 1742C 1130 1735 1120 1730 1108 1730C 1064 1729 964 1702 835 1655C 722 1614 530 1571 457 1570C 440 1570 440 1571 456 1593C 471 1612 482 1615 539 1615C 621 1615 650 1623 689 1656C 737 1696 730 1710 661 1710C 628 1710 598 1715 595 1720C 591 1726 603 1730 625 1730C 661 1730 730 1759 764 1789C 774 1798 791 1822 802 1844C 825 1889 820 1896 753 1906C 668 1919 618 1892 580 1811C 567 1783 553 1760 548 1760C 544 1760 540 1780 540 1805C 540 1852 520 1912 502 1924C 496 1927 479 1918 464 1904zM620 1497C 649 1449 647 1336 613 1191C 578 1043 575 892 604 815C 650 694 727 626 927 528C 1064 462 1137 404 1170 335C 1182 310 1193 290 1195 290C 1197 290 1212 315 1229 345C 1270 417 1331 464 1482 538C 1624 607 1694 659 1741 726C 1815 834 1828 965 1783 1159C 1746 1317 1744 1460 1778 1508C 1807 1548 1820 1548 1845 1508C 1873 1465 1906 1443 1968 1427C 2021 1414 2049 1396 2037 1383C 2033 1379 2006 1386 1978 1398C 1950 1410 1924 1418 1922 1415C 1919 1412 1922 1393 1928 1372C 1943 1323 2000 1257 2056 1224C 2092 1203 2100 1193 2100 1169C 2100 1143 2098 1141 2081 1149C 2071 1155 2048 1176 2031 1196C 2013 1216 1996 1229 1993 1226C 1989 1223 1987 1194 1987 1161C 1987 1092 2010 1045 2058 1015C 2084 999 2089 989 2087 965C 2086 949 2081 935 2075 936C 2066 936 2020 993 1993 1036C 1983 1053 1981 1052 1966 1018C 1937 951 1947 890 1996 818C 2018 787 2020 778 2010 759C 1998 738 1997 740 1976 791C 1951 855 1925 867 1915 818C 1905 772 1867 703 1854 707C 1834 714 1757 646 1733 601C 1717 571 1710 540 1710 504C 1710 459 1706 449 1683 430L1683 430L1655 408L1652 435C 1650 450 1659 484 1673 511C 1686 538 1694 562 1691 565C 1677 573 1565 520 1534 489C 1515 471 1497 440 1491 415C 1481 374 1479 372 1433 365C 1371 356 1295 327 1239 291C 1198 265 1192 264 1174 277C 1135 308 1037 348 973 361C 937 368 906 379 905 385C 903 390 899 407 896 422C 883 480 778 560 713 560L713 560L690 560L711 521C 722 500 734 465 737 445L737 445L743 407L712 426C 682 443 680 448 680 499C 680 571 650 631 592 675C 568 694 541 710 533 710C 518 710 470 803 470 833C 470 842 464 850 456 850C 436 850 411 813 404 773C 399 746 395 742 384 751C 363 768 367 785 400 832C 440 888 448 959 422 1014L422 1014L404 1054L364 995C 316 924 300 916 300 962C 300 988 307 999 334 1017C 352 1028 374 1054 383 1073C 399 1105 407 1210 395 1222C 392 1225 370 1207 345 1183C 299 1136 280 1133 287 1174C 290 1189 310 1210 340 1229C 367 1247 402 1277 418 1298C 448 1335 478 1405 469 1415C 466 1417 440 1410 411 1399C 381 1388 355 1382 352 1385C 341 1396 371 1414 422 1427C 483 1443 533 1478 551 1519C 562 1543 567 1547 583 1539C 593 1533 610 1514 620 1497zM1105 1476C 1127 1477 1179 1478 1220 1480C 1311 1482 1367 1463 1410 1414C 1451 1367 1448 1356 1399 1380C 1376 1392 1356 1400 1354 1397C 1352 1395 1368 1385 1390 1375C 1438 1353 1515 1274 1536 1225C 1555 1179 1554 1116 1534 1100C 1509 1078 1467 1099 1454 1140C 1444 1170 1442 1172 1436 1153C 1425 1119 1355 1062 1308 1049C 1284 1043 1235 1040 1199 1042L1199 1042L1133 1047L1127 941C 1124 883 1119 826 1117 815C 1115 804 1115 800 1117 805C 1119 811 1149 814 1189 812C 1226 810 1275 813 1297 819C 1346 832 1415 890 1441 941C 1458 975 1465 980 1495 980C 1534 980 1541 972 1542 930C 1543 887 1477 795 1415 754C 1346 708 1255 686 1172 695C 1080 705 1077 706 1095 740C 1103 756 1110 773 1110 777C 1109 781 1102 772 1093 755C 1056 684 1021 667 965 692C 936 705 934 713 956 730C 964 738 975 751 980 761C 987 774 986 777 973 776C 950 774 896 848 869 917C 827 1027 847 1184 915 1286C 945 1329 998 1380 1015 1380C 1018 1380 1020 1351 1020 1315C 1020 1263 1015 1244 995 1214C 940 1132 934 992 984 925C 998 906 999 906 996 932C 995 947 988 966 980 974C 973 983 965 1010 962 1035L962 1035L957 1080L990 1080L1022 1080L1017 1013C 1014 975 1010 920 1007 890C 1005 860 1000 824 996 810C 991 791 991 789 999 801C 1020 834 1030 958 1030 1183L1030 1183L1030 1411L1005 1436C 991 1450 980 1463 980 1466C 980 1477 1026 1488 1045 1482C 1056 1478 1083 1476 1105 1476zM162 1148C 160 1138 153 1133 146 1137C 140 1141 141 1136 149 1126C 159 1115 160 1106 153 1099C 137 1083 126 1139 142 1158C 152 1170 152 1172 143 1166C 130 1159 129 1159 125 1199C 123 1222 123 1221 145 1194C 157 1179 165 1158 162 1148zM388 1159C 388 1103 380 1097 379 1151C 377 1194 379 1210 384 1210C 387 1210 389 1187 388 1159zM2257 1158C 2252 1106 2223 1040 2206 1040C 2201 1040 2203 1047 2210 1055C 2220 1067 2219 1070 2206 1070C 2196 1070 2191 1066 2195 1061C 2198 1056 2196 1049 2191 1046C 2186 1042 2179 1044 2175 1050C 2172 1055 2163 1060 2157 1060C 2150 1060 2153 1054 2162 1046C 2172 1039 2176 1029 2172 1024C 2168 1020 2174 1022 2184 1030C 2201 1043 2203 1043 2198 1030C 2187 996 2120 1019 2120 1057C 2120 1065 2115 1068 2109 1064C 2101 1060 2101 1055 2109 1047C 2127 1029 2122 1023 2090 1022C 2055 1021 2007 1070 2017 1096C 2022 1110 2025 1108 2036 1089C 2046 1071 2049 1069 2050 1082C 2050 1091 2045 1102 2039 1105C 2033 1109 2031 1119 2035 1128C 2038 1137 2038 1141 2034 1137C 2022 1125 2000 1151 2000 1179L2000 1179L2001 1205L2028 1174C 2056 1141 2082 1127 2114 1126C 2139 1125 2147 1100 2123 1099C 2113 1099 2110 1096 2118 1093C 2124 1091 2130 1081 2131 1072C 2131 1063 2136 1068 2140 1083C 2145 1099 2147 1119 2144 1128C 2141 1138 2145 1135 2151 1123L2151 1123L2163 1101L2183 1126C 2194 1140 2209 1149 2217 1146C 2225 1143 2228 1145 2225 1150C 2220 1159 2248 1209 2259 1210C 2261 1210 2260 1186 2257 1158zM2012 1108C 2003 1099 2000 1101 2000 1120C 2000 1139 2003 1141 2012 1132C 2021 1123 2021 1117 2012 1108zM834 1015C 838 979 838 944 834 938C 830 932 831 930 837 933C 843 937 852 929 858 916C 865 900 865 893 857 893C 850 893 834 890 820 886C 800 880 798 881 810 890C 823 899 822 901 805 898C 792 895 786 887 787 875C 788 863 787 861 783 869C 779 880 776 880 770 869C 765 862 754 855 746 854C 737 853 732 856 736 861C 739 866 746 867 752 864C 758 860 760 863 758 871C 755 879 747 884 741 882C 734 881 731 884 735 890C 738 896 746 898 751 895C 756 891 757 897 753 906C 749 917 745 919 742 912C 740 905 732 900 724 900C 716 900 710 889 709 873L709 873L708 845L700 875C 696 892 692 897 691 888C 691 878 686 870 680 870C 675 870 669 878 669 888C 668 897 664 892 660 875L660 875L652 845L651 873C 651 888 645 900 639 900C 632 900 629 883 632 855C 634 830 634 810 633 810C 630 810 600 880 600 887C 600 889 605 888 610 885C 626 875 622 897 604 915C 591 928 589 944 595 1005L595 1005L602 1080L714 1080L827 1080L834 1015zM1794 1049C 1803 1002 1801 920 1791 920C 1786 920 1779 913 1776 904C 1773 896 1774 892 1780 895C 1793 903 1793 874 1780 849C 1770 831 1749 822 1751 838C 1754 856 1748 884 1744 873C 1741 866 1732 864 1724 867C 1716 870 1710 867 1710 861C 1710 855 1718 849 1728 849C 1744 848 1744 847 1727 843C 1707 838 1710 813 1729 818C 1736 819 1739 816 1735 810C 1724 792 1700 820 1700 851C 1700 881 1687 889 1674 868C 1669 861 1672 859 1681 864C 1689 868 1686 865 1676 856C 1666 848 1653 843 1647 847C 1642 850 1640 847 1642 839C 1645 831 1656 826 1666 828C 1682 830 1682 829 1670 821C 1650 807 1627 830 1636 854C 1641 868 1645 869 1652 858C 1660 847 1661 847 1658 858C 1656 866 1651 871 1646 870C 1641 869 1633 874 1628 882C 1621 891 1620 889 1624 875C 1627 864 1625 848 1619 840C 1610 827 1609 828 1614 843C 1619 857 1615 859 1592 854C 1577 850 1560 844 1555 839C 1549 835 1538 835 1530 840C 1519 847 1523 850 1544 856C 1567 861 1569 865 1557 871C 1545 878 1544 885 1553 909C 1583 990 1480 1034 1438 959C 1421 930 1397 926 1404 953C 1405 960 1405 962 1403 957C 1400 953 1393 953 1387 957C 1380 960 1383 954 1393 943C 1417 915 1414 907 1384 914C 1359 921 1358 920 1375 904C 1391 887 1391 886 1375 873C 1365 866 1354 863 1350 865C 1345 868 1340 863 1337 856C 1334 848 1322 842 1312 843C 1296 844 1294 847 1303 861C 1309 870 1320 875 1328 872C 1337 869 1341 871 1337 877C 1327 893 1291 900 1296 885C 1299 878 1296 869 1290 865C 1284 862 1280 862 1281 867C 1285 891 1277 901 1270 880C 1263 858 1262 859 1260 895L1260 895L1257 935L1250 895L1243 855L1240 900L1237 945L1230 900C 1224 864 1223 861 1221 885C 1219 915 1219 915 1209 891C 1200 868 1199 868 1186 886C 1178 896 1175 911 1177 920C 1181 929 1177 927 1167 915C 1152 895 1154 875 1171 885C 1176 888 1177 885 1174 877C 1172 870 1163 863 1156 863C 1146 863 1142 885 1141 951L1141 951L1139 1038L1179 1029C 1227 1018 1311 1033 1354 1059C 1382 1076 1406 1078 1586 1079L1586 1079L1788 1080L1794 1049zM1993 1003C 1989 992 1990 989 1998 994C 2006 999 2008 995 2003 984C 1999 973 2001 969 2007 973C 2013 977 2024 972 2031 962C 2043 947 2043 946 2029 957C 2013 970 2000 965 2000 948C 2000 943 2005 942 2012 946C 2019 950 2020 949 2016 941C 2012 935 2005 932 2000 935C 1996 938 1989 934 1987 928C 1984 921 1984 933 1987 954C 1991 979 1990 991 1983 987C 1977 983 1975 990 1978 1005C 1980 1019 1986 1027 1991 1025C 1995 1022 1996 1012 1993 1003zM412 978C 406 972 403 978 403 996C 403 1019 404 1020 412 1006C 419 994 419 985 412 978zM2140 1004C 2146 998 2141 994 2126 992C 2113 991 2100 996 2097 1003C 2091 1019 2125 1019 2140 1004zM387 977C 387 969 381 963 373 963C 364 963 363 967 371 977C 377 984 383 990 385 990C 386 990 387 984 387 977zM2120 970C 2120 965 2115 960 2109 960C 2104 960 2102 965 2105 970C 2108 976 2113 980 2116 980C 2118 980 2120 976 2120 970zM2137 958C 2134 950 2131 953 2131 964C 2130 975 2133 981 2136 977C 2139 974 2140 965 2137 958zM1980 953C 1980 948 1975 938 1970 930C 1962 918 1960 919 1960 938C 1960 950 1965 960 1970 960C 1976 960 1980 957 1980 953zM175 941C 172 935 177 927 186 922C 201 914 201 912 186 907C 175 903 171 904 176 911C 180 919 175 920 161 915C 135 907 133 925 158 939C 180 952 183 952 175 941zM363 931C 366 917 364 913 354 917C 344 921 342 917 346 906C 353 888 350 887 326 896C 312 902 312 905 332 925C 345 938 356 948 356 949C 357 950 360 941 363 931zM239 896C 239 890 236 891 233 898C 229 908 224 906 213 891C 199 871 173 871 186 891C 189 896 196 898 201 895C 209 889 214 904 211 924C 210 929 216 928 224 920C 233 913 240 902 239 896zM2060 919C 2060 913 2053 910 2045 914C 2026 921 1987 884 1996 868C 2000 861 1999 860 1992 864C 1969 878 2013 929 2048 930C 2054 930 2060 925 2060 919zM2175 911C 2172 905 2178 896 2187 890C 2204 879 2204 879 2188 884C 2166 891 2164 872 2185 864C 2193 860 2197 853 2194 848C 2190 842 2184 843 2179 851C 2172 862 2170 862 2170 852C 2170 845 2166 841 2161 845C 2156 848 2153 863 2155 878C 2157 893 2159 908 2159 913C 2160 917 2165 920 2171 920C 2176 920 2179 916 2175 911zM2080 900C 2080 895 2075 890 2069 890C 2064 890 2062 895 2065 900C 2068 906 2073 910 2076 910C 2078 910 2080 906 2080 900zM876 868C 881 861 878 859 868 863C 859 866 849 866 846 862C 842 859 832 855 822 854C 807 852 808 853 824 866C 848 883 866 884 876 868zM221 847C 211 838 210 839 216 853C 219 863 225 868 228 865C 231 862 228 854 221 847zM866 838C 870 831 870 828 865 832C 861 836 850 834 841 827C 827 816 827 817 839 833C 855 853 857 854 866 838zM895 841C 898 836 897 829 892 826C 887 823 883 827 883 835C 883 852 886 854 895 841zM1173 835C 1170 826 1165 821 1163 824C 1160 827 1161 833 1165 839C 1174 855 1180 852 1173 835zM2165 821C 2168 816 2167 809 2162 806C 2157 803 2153 807 2153 815C 2153 832 2156 834 2165 821zM905 803C 903 793 901 784 901 782C 900 780 895 782 890 785C 882 790 883 796 891 806C 906 824 909 824 905 803zM1770 816C 1770 813 1766 808 1760 805C 1755 802 1750 804 1750 809C 1750 815 1755 820 1760 820C 1766 820 1770 818 1770 816zM2105 811C 2096 803 2069 801 2075 809C 2077 813 2086 817 2095 817C 2103 817 2108 814 2105 811zM2057 796C 2057 788 2051 784 2042 787C 2031 792 2031 794 2042 801C 2049 806 2055 810 2056 810C 2056 810 2057 804 2057 796zM2120 796C 2120 794 2112 786 2103 779C 2087 766 2086 767 2099 783C 2112 799 2120 804 2120 796zM535 605L542 545L520 566C 501 585 500 590 512 628C 519 650 525 668 526 667C 527 666 531 638 535 605zM1871 566L1850 546L1850 585C 1850 607 1853 636 1857 649C 1862 670 1864 668 1877 630C 1891 590 1890 586 1871 566zM1835 592C 1832 589 1824 592 1817 599C 1808 609 1809 610 1823 604C 1833 601 1838 595 1835 592z" stroke="none" fill="#000000" fill-rule="nonzero" />
            <path d="M1210 1420C 1251 1416 1299 1410 1315 1406C 1342 1400 1342 1401 1310 1414C 1290 1422 1245 1428 1205 1428L1205 1428L1135 1427L1210 1420z" stroke="none" fill="#000000" fill-rule="nonzero" />
            <path d="M1124 1245L1125 1105L1194 1107C 1284 1110 1347 1140 1376 1193L1376 1193L1397 1231L1419 1203C 1434 1184 1438 1182 1431 1197C 1399 1263 1293 1307 1187 1298L1187 1298L1131 1293L1127 1339C 1125 1364 1124 1322 1124 1245z" stroke="none" fill="#000000" fill-rule="nonzero" />
            <path d="M2057 1119C 2064 1112 2065 1098 2059 1078C 2053 1055 2054 1051 2063 1058C 2070 1064 2079 1068 2083 1068C 2088 1068 2094 1071 2098 1074C 2101 1077 2096 1080 2087 1080C 2078 1080 2070 1085 2070 1090C 2070 1096 2075 1100 2081 1100C 2089 1100 2089 1105 2080 1115C 2073 1123 2063 1130 2057 1130C 2049 1130 2049 1127 2057 1119z" stroke="none" fill="#000000" fill-rule="nonzero" />
            <path d="M767 901C 763 884 764 880 772 888C 777 893 780 904 778 911C 775 919 771 914 767 901z" stroke="none" fill="#000000" fill-rule="nonzero" />
            <path d="M1576 933C 1570 919 1571 918 1581 927C 1588 934 1591 942 1588 945C 1585 948 1579 943 1576 933z" stroke="none" fill="#000000" fill-rule="nonzero" />
            <path d="M1580 885C 1580 867 1584 862 1595 866C 1603 870 1610 876 1610 882C 1610 887 1605 888 1598 884C 1590 879 1589 882 1593 893C 1596 903 1595 910 1590 910C 1584 910 1580 899 1580 885z" stroke="none" fill="#000000" fill-rule="nonzero" />
            <path d="M1350 890C 1350 884 1357 880 1365 880C 1373 880 1380 882 1380 884C 1380 886 1373 890 1365 894C 1357 897 1350 895 1350 890z" stroke="none" fill="#000000" fill-rule="nonzero" />
            <path d="M1663 893C 1672 891 1686 891 1693 893C 1699 896 1692 898 1675 898C 1659 898 1653 896 1663 893z" stroke="none" fill="#000000" fill-rule="nonzero" />
            <path d="M1190 1929C 1190 1925 1197 1909 1205 1894C 1213 1878 1220 1872 1220 1881C 1220 1895 1191 1942 1190 1929z" stroke="none" fill="#000000" fill-rule="nonzero" />
            <path d="M1167 1850C 1163 1833 1154 1830 1106 1830C 1046 1830 1037 1823 1073 1801C 1093 1788 1094 1788 1081 1803C 1069 1818 1072 1820 1118 1820C 1160 1820 1170 1823 1175 1841C 1179 1852 1180 1864 1177 1866C 1175 1869 1170 1862 1167 1850z" stroke="none" fill="#000000" fill-rule="nonzero" />
            <path d="M1112 1774C 1122 1764 1132 1758 1134 1761C 1137 1764 1129 1772 1117 1779C 1096 1792 1096 1791 1112 1774z" stroke="none" fill="#000000" fill-rule="nonzero" />
            <path d="M2026 1278C 2029 1273 2036 1272 2041 1275C 2054 1284 2052 1287 2035 1287C 2027 1287 2023 1283 2026 1278z" stroke="none" fill="#000000" fill-rule="nonzero" />
            <path d="M324 1129C 321 1123 323 1113 329 1107C 338 1098 339 1100 334 1115C 327 1133 328 1133 343 1121C 352 1114 360 1112 360 1118C 360 1132 332 1141 324 1129z" stroke="none" fill="#000000" fill-rule="nonzero" />
            <path d="M255 1110C 258 1105 263 1100 266 1100C 268 1100 270 1105 270 1110C 270 1116 265 1120 259 1120C 254 1120 252 1116 255 1110z" stroke="none" fill="#000000" fill-rule="nonzero" />
            <path d="M350 1089C 350 1084 355 1082 360 1085C 366 1088 370 1093 370 1096C 370 1098 366 1100 360 1100C 355 1100 350 1095 350 1089z" stroke="none" fill="#000000" fill-rule="nonzero" />
            <path d="M183 1075C 180 1066 179 1057 182 1055C 186 1051 220 1043 242 1041C 246 1040 246 1032 243 1023C 237 1008 239 1007 252 1018C 264 1027 270 1028 275 1020C 280 1012 286 1012 292 1018C 307 1033 293 1049 270 1043C 258 1040 250 1043 250 1049C 250 1056 246 1058 240 1055C 235 1052 230 1055 230 1063C 230 1071 223 1081 214 1084C 192 1092 190 1092 183 1075z" stroke="none" fill="#000000" fill-rule="nonzero" />
		</g>
	</g>
</g>
</svg>