<?xml version="1.0" standalone="no"?>
<!DOCTYPE svg PUBLIC "-//W3C//DTD SVG 20010904//EN"
 "http://www.w3.org/TR/2001/REC-SVG-20010904/DTD/svg10.dtd">
<svg version="1.0" xmlns="http://www.w3.org/2000/svg"
 width="12.000000pt" height="12.000000pt" viewBox="0 0 12.000000 12.000000"
 preserveAspectRatio="xMidYMid meet">
<metadata>
Created by potrace 1.16, written by Peter Selinger 2001-2019
</metadata>
<g transform="translate(0.000000,12.000000) scale(0.002344,-0.002344)"
fill="#000000" stroke="none">
<path d="M2245 4944 c-148 -20 -281 -50 -429 -98 l-131 -42 50 -27 c28 -15
212 -112 410 -216 l360 -188 0 -248 0 -247 -460 -334 c-253 -184 -463 -334
-467 -334 -22 0 -623 42 -624 43 -2 3 -131 760 -146 860 -7 42 -15 77 -18 76
-8 -1 -111 -126 -174 -211 -239 -326 -400 -742 -446 -1153 -6 -55 -10 -173 -8
-262 l3 -161 372 363 371 364 54 -5 c29 -3 176 -13 326 -23 150 -10 275 -20
277 -23 3 -2 79 -235 171 -517 l165 -512 -192 -352 c-106 -194 -197 -357 -203
-364 -8 -9 -41 -7 -141 8 -71 10 -301 44 -510 74 -209 31 -395 58 -414 62
l-34 6 43 -79 c187 -341 455 -631 793 -857 209 -140 546 -282 794 -335 l92
-20 -163 327 c-89 179 -206 416 -260 527 l-98 201 197 361 197 362 561 -2 561
-3 193 -355 c106 -195 193 -359 193 -363 0 -4 -116 -243 -259 -531 l-258 -523
91 19 c256 55 584 195 801 340 330 221 600 514 785 851 l43 78 -34 -6 c-145
-26 -1055 -152 -1061 -147 -3 4 -94 169 -202 366 l-196 359 165 511 c91 281
169 514 173 518 4 3 133 13 287 22 154 9 299 19 322 22 l42 5 373 -364 373
-365 3 161 c2 89 -2 207 -8 262 -53 482 -264 963 -577 1316 l-49 56 -13 -84
c-25 -177 -143 -848 -149 -854 -6 -5 -399 -33 -589 -42 -41 -2 -60 10 -493
323 l-450 325 3 259 2 258 350 184 c193 100 372 195 400 210 l49 27 -114 39
c-140 47 -297 82 -453 103 -146 19 -481 18 -622 -1z"/>
</g>
</svg>
