<?xml version="1.0" standalone="no"?>
<!DOCTYPE svg PUBLIC "-//W3C//DTD SVG 20010904//EN"
 "http://www.w3.org/TR/2001/REC-SVG-20010904/DTD/svg10.dtd">
<svg version="1.0" xmlns="http://www.w3.org/2000/svg"
 width="12.000000pt" height="12.000000pt" viewBox="0 0 12.000000 12.000000"
 preserveAspectRatio="xMidYMid meet">
<metadata>
Created by potrace 1.16, written by Peter Selinger 2001-2019
</metadata>
<g transform="translate(0.000000,12.000000) scale(0.007500,-0.007500)"
fill="#000000" stroke="none">
<path d="M560 1494 c-225 -20 -340 -43 -340 -68 0 -8 9 -67 20 -131 61 -356
88 -697 58 -716 -7 -5 -31 -9 -53 -9 -68 0 -169 -20 -187 -37 -84 -76 141
-294 415 -403 268 -106 523 -119 777 -38 200 63 320 193 320 345 0 120 -111
223 -240 223 -25 0 -40 5 -40 13 0 96 52 549 76 660 8 38 14 77 14 87 0 44
-177 70 -515 74 -143 2 -280 2 -305 0z m325 -1014 c83 -4 134 -8 115 -10 -19
-1 -39 -3 -45 -5 -5 -1 -16 -3 -22 -3 -7 -1 -13 -11 -13 -22 0 -11 -4 -20 -9
-20 -5 0 -9 -42 -8 -95 2 -70 -1 -95 -10 -95 -7 0 -13 -4 -13 -10 0 -5 7 -10
16 -10 8 0 13 -4 9 -9 -3 -5 3 -12 12 -14 28 -7 -67 -6 -115 1 l-43 7 20 21
c16 17 20 38 23 108 2 47 0 86 -3 86 -3 0 -4 11 -2 24 4 21 -1 25 -69 45 -40
11 -55 18 -33 15 22 -4 108 -10 190 -14z"/>
</g>
</svg>
