<?xml version="1.0" encoding="UTF-8"?>
<svg xmlns="http://www.w3.org/2000/svg" xmlns:xlink="http://www.w3.org/1999/xlink" width="36px" height="36px" viewBox="0 0 36 36" version="1.1">
<g id="surface1">
<path style=" stroke:none;fill-rule:nonzero;fill:rgb(0%,0%,0%);fill-opacity:1;" d="M 5.167969 0.582031 C 4.535156 0.894531 3.847656 1.265625 3.621094 1.398438 C 3.007812 1.765625 3.007812 1.773438 3.429688 3.058594 C 3.621094 3.636719 3.769531 4.140625 3.769531 4.183594 C 3.769531 4.226562 3.648438 4.304688 3.507812 4.359375 C 2.707031 4.660156 1.414062 5.253906 1.316406 5.378906 C 1.238281 5.457031 1.179688 5.574219 1.179688 5.652344 C 1.179688 5.730469 1.328125 6.167969 1.527344 6.644531 C 2.925781 10.160156 3.664062 13.621094 3.832031 17.472656 C 4.085938 23.082031 2.925781 28.75 0.5 33.742188 C 0.226562 34.3125 0 34.847656 0 34.9375 C 0 35.148438 0.160156 35.304688 0.722656 35.683594 L 1.203125 36 L 2.109375 36 L 1.632812 35.683594 C 1.1875 35.386719 0.652344 35.023438 0.542969 34.929688 C 0.527344 34.910156 0.652344 34.566406 0.851562 34.164062 C 2.832031 30.128906 3.945312 25.910156 4.304688 21.179688 C 4.421875 19.527344 4.359375 16.628906 4.164062 15.101562 C 4.042969 14.203125 3.929688 13.410156 3.875 13.132812 C 3.550781 11.398438 3.410156 10.808594 3.085938 9.675781 C 2.734375 8.464844 2.230469 7.011719 1.855469 6.136719 C 1.765625 5.914062 1.695312 5.703125 1.722656 5.679688 C 1.820312 5.589844 3.902344 4.726562 3.945312 4.761719 C 3.972656 4.808594 4.253906 5.816406 4.605469 7.152344 C 5.035156 8.769531 5.519531 11.277344 5.757812 13.050781 C 6.25 16.726562 6.222656 20.691406 5.679688 23.820312 C 5.238281 26.402344 4.464844 28.890625 3.425781 31.105469 C 3.148438 31.691406 3.09375 31.871094 3.121094 32.007812 C 3.148438 32.125 3.324219 32.324219 3.789062 32.730469 C 5.183594 33.941406 6.574219 34.910156 8.050781 35.710938 L 8.585938 36 L 12.488281 36 L 12.488281 32.792969 L 17.324219 32.792969 L 17.324219 36 L 17.605469 36 L 17.605469 30.605469 C 17.605469 25.769531 17.597656 25.199219 17.515625 25.121094 C 17.4375 25.039062 16.839844 25.03125 11.691406 25.03125 C 6.25 25.03125 5.957031 25.023438 5.984375 24.925781 C 5.996094 24.882812 6.027344 24.769531 6.039062 24.671875 L 6.074219 24.523438 L 11.777344 24.523438 C 16.136719 24.523438 17.488281 24.503906 17.542969 24.460938 C 17.585938 24.40625 17.605469 22.972656 17.605469 18.332031 L 17.605469 12.261719 L 17.824219 12.285156 L 18.027344 12.289062 L 18.050781 18.332031 C 18.050781 22.691406 18.078125 24.390625 18.121094 24.449219 C 18.175781 24.519531 19.125 24.523438 23.597656 24.523438 L 29.019531 24.523438 L 29.046875 24.699219 C 29.058594 24.800781 29.082031 24.910156 29.082031 24.953125 C 29.082031 25.023438 28.230469 25.03125 23.675781 25.03125 C 20.058594 25.03125 18.230469 25.050781 18.160156 25.085938 C 18.054688 25.144531 18.054688 25.261719 18.054688 30.570312 L 18.054688 36 L 26.894531 36 L 27.386719 35.738281 C 28.566406 35.101562 29.609375 34.445312 30.535156 33.757812 C 31.15625 33.308594 32.238281 32.40625 32.378906 32.238281 C 32.589844 32 32.546875 31.816406 32.082031 30.957031 C 30.339844 27.789062 29.136719 24.019531 28.660156 20.195312 C 28.609375 19.808594 28.554688 19.433594 28.546875 19.355469 C 28.460938 18.863281 28.398438 16.769531 28.425781 15.582031 C 28.511719 12.269531 29.074219 9.402344 30.183594 6.554688 C 30.429688 5.941406 30.988281 4.726562 31.070312 4.632812 C 31.085938 4.621094 31.972656 4.984375 33.1875 5.511719 C 33.417969 5.605469 33.628906 5.710938 33.660156 5.730469 C 33.671875 5.757812 33.558594 5.984375 33.390625 6.222656 C 32.898438 6.953125 32.535156 7.601562 32.070312 8.558594 C 31.113281 10.527344 30.578125 12.324219 30.253906 14.660156 C 30.144531 15.449219 30.121094 15.777344 30.121094 17.492188 C 30.128906 19.511719 30.15625 19.941406 30.4375 21.710938 C 30.71875 23.484375 31.421875 26.050781 32.125 27.898438 C 32.773438 29.582031 33.96875 32.167969 34.644531 33.335938 C 34.769531 33.558594 34.925781 33.828125 34.980469 33.925781 C 35.035156 34.03125 35.175781 34.277344 35.289062 34.460938 C 35.402344 34.65625 35.492188 34.847656 35.492188 34.882812 C 35.492188 34.929688 35.136719 35.191406 34.707031 35.457031 C 34.277344 35.738281 33.917969 35.972656 33.917969 35.980469 C 33.917969 35.992188 34.121094 36 34.363281 36 L 34.8125 36 L 35.332031 35.65625 C 35.628906 35.472656 35.894531 35.277344 35.9375 35.21875 C 36.105469 35.007812 36.019531 34.714844 35.558594 33.925781 C 34.742188 32.511719 34.191406 31.4375 33.441406 29.785156 C 32.605469 27.949219 31.648438 25.09375 31.238281 23.238281 C 30.769531 21.074219 30.59375 19.496094 30.59375 17.523438 C 30.59375 13.28125 31.605469 9.851562 33.910156 6.335938 C 34.234375 5.84375 34.261719 5.652344 34.082031 5.433594 C 33.996094 5.34375 33.503906 5.097656 32.785156 4.78125 C 32.140625 4.507812 31.589844 4.273438 31.5625 4.273438 C 31.550781 4.273438 31.480469 4.238281 31.414062 4.199219 C 31.324219 4.128906 31.324219 4.105469 31.5 3.789062 C 31.605469 3.605469 31.871094 3.171875 32.097656 2.804688 C 32.535156 2.109375 32.589844 1.914062 32.421875 1.695312 C 32.289062 1.539062 31.359375 1.003906 30.242188 0.441406 L 29.355469 0 L 28.097656 0 L 28.90625 0.359375 C 29.972656 0.84375 32.007812 1.917969 32.007812 1.996094 C 32.007812 2.003906 31.832031 2.285156 31.621094 2.621094 C 30.578125 4.269531 29.761719 6.046875 29.136719 8.015625 C 28.890625 8.78125 28.519531 10.273438 28.398438 10.949219 L 28.328125 11.363281 L 25.542969 11.363281 L 25.507812 11.230469 C 25.488281 11.164062 25.453125 10.46875 25.445312 9.683594 C 25.402344 8.078125 25.480469 7.117188 25.769531 5.34375 C 26.09375 3.3125 26.492188 1.90625 27.261719 0.0625 C 27.289062 0.0195312 27.21875 0 27.035156 0 L 26.796875 0 L 26.550781 0.597656 C 25.824219 2.441406 25.347656 4.5625 25.050781 7.171875 C 24.945312 8.136719 24.925781 10.652344 25.011719 11.101562 L 25.066406 11.363281 L 23.773438 11.355469 L 22.472656 11.335938 L 22.410156 10.941406 C 22.304688 10.316406 22.253906 8.183594 22.324219 7.058594 C 22.464844 4.800781 22.894531 2.539062 23.535156 0.710938 L 23.785156 0 L 23.238281 0 L 23.042969 0.542969 C 22.296875 2.617188 21.917969 4.867188 21.832031 7.847656 C 21.804688 8.78125 21.816406 9.554688 21.859375 10.152344 C 21.902344 10.652344 21.929688 11.117188 21.929688 11.199219 L 21.9375 11.363281 L 19.355469 11.363281 L 19.316406 11.089844 C 19.285156 10.949219 19.273438 9.976562 19.273438 8.945312 C 19.273438 6.601562 19.398438 5.113281 19.777344 3.09375 C 19.917969 2.300781 20.300781 0.738281 20.445312 0.332031 C 20.558594 0 20.558594 0 20.304688 0 C 20.03125 0 20.058594 -0.0507812 19.742188 1.152344 C 19.496094 2.058594 19.230469 3.460938 19.125 4.308594 C 19.089844 4.585938 19.046875 4.859375 19.039062 4.921875 C 19.019531 4.984375 18.976562 5.492188 18.921875 6.046875 C 18.816406 7.121094 18.78125 10.414062 18.863281 11.03125 L 18.898438 11.363281 L 16.753906 11.363281 L 16.796875 10.917969 C 16.875 10.175781 16.839844 7.363281 16.742188 6.242188 C 16.542969 4.097656 16.164062 1.96875 15.6875 0.371094 L 15.574219 0 L 15.097656 0 L 15.335938 0.851562 C 16.011719 3.183594 16.367188 6.011719 16.367188 8.9375 C 16.367188 9.757812 16.347656 10.636719 16.332031 10.890625 L 16.292969 11.363281 L 13.660156 11.363281 L 13.691406 11.171875 C 13.789062 10.625 13.84375 9.027344 13.816406 7.929688 C 13.71875 5.027344 13.394531 2.945312 12.734375 0.933594 L 12.410156 0 L 12.128906 0 C 11.898438 0 11.863281 0.0078125 11.890625 0.0898438 C 11.902344 0.148438 12.015625 0.484375 12.144531 0.835938 C 12.648438 2.230469 13.015625 4.015625 13.253906 6.1875 C 13.410156 7.644531 13.367188 10.484375 13.183594 11.230469 L 13.15625 11.363281 L 10.566406 11.363281 L 10.597656 11.171875 C 10.625 11.082031 10.652344 10.425781 10.667969 9.730469 C 10.722656 7.585938 10.414062 5.148438 9.816406 2.839844 C 9.613281 2.046875 9.203125 0.835938 8.980469 0.316406 L 8.832031 0 L 8.332031 0 L 8.527344 0.429688 C 8.980469 1.414062 9.449219 3.058594 9.753906 4.667969 C 10.132812 6.714844 10.257812 8.042969 10.214844 9.753906 C 10.203125 10.46875 10.175781 11.117188 10.152344 11.199219 L 10.117188 11.363281 L 6.019531 11.363281 L 5.992188 11.230469 C 5.984375 11.164062 5.898438 10.75 5.820312 10.320312 C 5.746094 9.894531 5.660156 9.429688 5.625 9.308594 C 5.597656 9.191406 5.519531 8.839844 5.457031 8.550781 C 5.113281 7.003906 4.492188 4.730469 3.902344 2.863281 L 3.621094 1.976562 L 4.324219 1.582031 C 5.210938 1.097656 5.960938 0.722656 6.835938 0.335938 C 7.207031 0.175781 7.515625 0.0273438 7.53125 0.0195312 C 7.542969 0.0078125 7.277344 0 6.925781 0 L 6.308594 0 Z M 19.398438 18.261719 L 19.40625 24.242188 L 18.28125 24.242188 L 18.28125 18.289062 C 18.28125 15.019531 18.300781 12.320312 18.316406 12.296875 C 18.34375 12.269531 18.589844 12.269531 18.871094 12.269531 L 19.378906 12.289062 Z M 22.894531 18.261719 L 22.894531 24.273438 L 20.980469 24.273438 L 20.980469 12.261719 L 22.894531 12.261719 Z M 26.316406 18.28125 L 26.324219 24.273438 L 24.46875 24.273438 L 24.46875 18.300781 C 24.46875 15.027344 24.488281 12.320312 24.503906 12.296875 C 24.53125 12.285156 24.941406 12.269531 25.417969 12.269531 L 26.296875 12.289062 Z M 28.144531 12.3125 C 28.160156 12.324219 28.144531 12.535156 28.117188 12.769531 C 28.089844 13 28.035156 13.605469 27.992188 14.117188 L 27.90625 15.046875 L 27.90625 13.691406 C 27.898438 12.339844 27.90625 12.285156 28.074219 12.269531 C 28.105469 12.261719 28.132812 12.285156 28.144531 12.3125 Z M 12.425781 14.511719 C 13.621094 14.710938 14.292969 15.320312 14.457031 16.347656 C 14.617188 17.417969 14.0625 18.449219 13.085938 18.878906 L 12.71875 19.035156 L 12.957031 19.203125 C 13.246094 19.414062 13.5 19.679688 13.773438 20.082031 C 14.011719 20.441406 15.347656 22.589844 15.390625 22.703125 C 15.417969 22.761719 15.222656 22.78125 14.394531 22.78125 L 13.359375 22.78125 L 12.636719 21.550781 C 12.234375 20.890625 11.8125 20.214844 11.707031 20.058594 C 11.453125 19.738281 11.144531 19.574219 10.75 19.574219 L 10.460938 19.574219 L 10.460938 22.78125 L 9.570312 22.78125 C 8.804688 22.78125 8.667969 22.773438 8.640625 22.691406 C 8.597656 22.578125 8.597656 14.539062 8.640625 14.492188 C 8.699219 14.433594 12.03125 14.449219 12.425781 14.511719 Z M 28.117188 19.96875 C 28.246094 21.113281 28.695312 23.519531 28.890625 24.136719 C 28.917969 24.238281 28.863281 24.242188 28.414062 24.242188 L 27.898438 24.242188 L 27.90625 20.902344 C 27.921875 17.78125 27.921875 17.632812 27.984375 18.476562 C 28.019531 18.976562 28.089844 19.636719 28.117188 19.96875 Z M 17.324219 27.652344 L 17.324219 29.980469 L 12.488281 29.980469 L 12.488281 25.3125 L 14.84375 25.304688 C 16.121094 25.292969 17.21875 25.292969 17.261719 25.304688 C 17.304688 25.320312 17.324219 25.839844 17.324219 27.652344 Z M 9.730469 27.648438 L 9.730469 29.980469 L 7.117188 29.980469 C 5.570312 29.980469 4.5 29.960938 4.5 29.933594 C 4.5 29.902344 4.550781 29.761719 4.605469 29.621094 C 4.949219 28.835938 5.574219 26.753906 5.871094 25.460938 L 5.90625 25.3125 L 9.730469 25.3125 Z M 24.300781 30.144531 C 24.300781 31.957031 24.277344 33.125 24.238281 33.335938 C 24.019531 34.53125 23.335938 35.332031 22.308594 35.632812 C 21.859375 35.769531 20.953125 35.769531 20.523438 35.640625 L 20.195312 35.542969 L 20.195312 34.644531 C 20.195312 33.757812 20.199219 33.730469 20.300781 33.828125 C 20.441406 33.953125 20.988281 34.144531 21.226562 34.144531 C 21.664062 34.144531 22.050781 33.910156 22.238281 33.53125 C 22.480469 33.066406 22.5 32.757812 22.5 29.945312 L 22.5 27.28125 L 24.300781 27.28125 Z M 3.945312 31.746094 C 3.957031 31.976562 3.957031 32.175781 3.945312 32.175781 C 3.882812 32.175781 3.65625 31.921875 3.65625 31.859375 C 3.65625 31.773438 3.886719 31.269531 3.917969 31.296875 C 3.929688 31.304688 3.945312 31.507812 3.945312 31.746094 Z M 9.730469 34.367188 C 9.730469 35.523438 9.710938 35.945312 9.667969 35.945312 C 9.527344 35.945312 7.753906 34.980469 6.976562 34.488281 C 6.277344 34.039062 4.667969 32.871094 4.667969 32.816406 C 4.667969 32.800781 5.816406 32.792969 7.199219 32.792969 L 9.730469 32.792969 Z M 9.730469 34.367188 "/>
<path style=" stroke:none;fill-rule:nonzero;fill:rgb(0%,0%,0%);fill-opacity:1;" d="M 10.496094 15.898438 C 10.484375 15.917969 10.460938 16.445312 10.460938 17.050781 L 10.460938 18.167969 L 10.914062 18.167969 C 11.523438 18.167969 11.863281 18.085938 12.121094 17.878906 C 12.628906 17.457031 12.707031 16.644531 12.261719 16.199219 C 12.085938 16.023438 11.988281 15.980469 11.691406 15.925781 C 11.285156 15.855469 10.554688 15.839844 10.496094 15.898438 Z M 10.496094 15.898438 "/>
</g>
</svg>
