<?xml version="1.0" standalone="no"?>
<!DOCTYPE svg PUBLIC "-//W3C//DTD SVG 20010904//EN"
 "http://www.w3.org/TR/2001/REC-SVG-20010904/DTD/svg10.dtd">
<svg version="1.0" xmlns="http://www.w3.org/2000/svg"
 width="12.000000pt" height="12.000000pt" viewBox="0 0 12.000000 12.000000"
 preserveAspectRatio="xMidYMid meet">
<metadata>
Created by potrace 1.16, written by Peter Selinger 2001-2019
</metadata>
<g transform="translate(0.000000,12.000000) scale(0.005000,-0.005000)"
fill="#000000" stroke="none">
<path d="M1358 2270 c-15 -4 -43 -17 -61 -29 -37 -23 -120 -110 -125 -132 -2
-8 -7 -18 -12 -23 -13 -13 -239 -11 -253 3 -8 8 -1 11 29 12 l39 2 -45 6 c-29
4 -67 22 -108 49 -87 60 -160 92 -207 92 -98 0 -225 -105 -225 -186 0 -17 11
-53 25 -79 13 -27 23 -50 22 -50 -1 -1 -20 -6 -41 -11 -22 -5 -41 -14 -43 -20
-7 -22 287 -134 351 -134 10 0 68 16 127 35 60 19 139 40 177 47 l69 12 109
-59 c122 -65 156 -86 151 -92 -3 -2 -98 -10 -213 -18 -246 -17 -321 -25 -350
-36 -42 -15 -289 52 -481 132 -102 43 -166 77 -220 117 l-31 23 -13 -58 c-19
-82 -16 -243 5 -335 15 -66 22 -82 56 -112 l39 -35 5 -413 c3 -227 10 -438 14
-467 8 -47 15 -60 52 -93 68 -60 325 -214 475 -283 104 -48 139 -54 236 -34
30 6 72 12 94 14 22 3 56 7 75 10 19 2 52 5 73 4 20 0 37 4 37 8 0 7 28 10
118 12 15 1 21 5 16 13 -4 7 -3 8 4 4 16 -10 261 12 372 33 96 19 161 41 188
63 7 7 32 13 55 15 23 2 44 7 47 12 3 4 13 7 23 5 9 -1 34 3 55 9 20 6 41 10
45 9 17 -4 97 39 107 58 7 14 9 160 6 464 l-4 445 31 6 c35 8 79 43 71 56 -3
5 0 9 6 9 8 0 10 45 6 163 -2 89 -5 177 -5 195 0 18 -3 38 -7 44 -4 6 -8 25
-10 41 -2 32 -22 51 -39 38 -13 -12 -91 -26 -260 -50 l-141 -20 -49 23 c-28
13 -111 41 -185 61 -74 21 -137 41 -140 45 -3 4 -14 10 -25 12 -11 2 28 2 87
0 l107 -5 65 65 c54 56 66 74 76 120 11 47 10 59 -4 85 -9 18 -24 34 -33 37
-217 67 -345 87 -415 66z"/>
</g>
</svg>
